<svg xmlns="http://www.w3.org/2000/svg" xml:space="preserve" width="512" height="512" id="instagram">
  <switch>
    <g>
      <g fill="#6B463C">
        <path d="M331.529 139.937H182.498c-23.8 0-43.14 19.34-43.14 43.14v149.008c0 23.8 19.339 43.167 43.14 43.167H331.53c23.773 0 43.141-19.367 43.141-43.167V183.077c-.001-23.801-19.368-43.14-43.142-43.14zM257 335.05c-42.705 0-77.467-34.763-77.467-77.468 0-42.705 34.763-77.467 77.467-77.467 42.732 0 77.467 34.762 77.467 77.467S299.705 335.05 257 335.05zm79.97-138.917c-10.119 0-18.333-8.211-18.333-18.33 0-10.095 8.214-18.333 18.333-18.333 10.091 0 18.333 8.238 18.333 18.333 0 10.119-8.242 18.33-18.333 18.33zm0 0"></path>
        <path d="M257 212.865c-24.644 0-44.718 20.047-44.718 44.717 0 24.671 20.074 44.745 44.718 44.745 24.671 0 44.745-20.074 44.745-44.745 0-24.644-20.074-44.717-44.745-44.717zm0 0"></path>
        <path d="M257 6.902c-138.07 0-250 111.93-250 250s111.93 250 250 250 250-111.93 250-250c0-138.069-111.93-250-250-250zm150.392 325.183c0 41.861-34.027 75.889-75.862 75.889H182.498c-41.834 0-75.889-34.027-75.889-75.889V183.077c0-41.831 34.055-75.886 75.889-75.886H331.53c41.835 0 75.862 34.055 75.862 75.886v149.008zm0 0"></path>
      </g>
    </g>
  </switch>
</svg>
